<svg version="1" xmlns="http://www.w3.org/2000/svg" width="933.333" height="933.333" viewBox="0 0 700.000000 700.000000"><path d="M44.2 44.4c-.7 1.3-.7 260.5.1 261.3.9.8 260.5.8 261.4 0 .8-.9.8-260.5 0-261.4-1.1-1-260.8-.9-261.5.1zM396.3 43.8c-1.3.2-2.3.6-2.4 1 0 .4-.1 59.3-.2 131l-.2 130.2 2.5.1c14.5.4 259.2 0 259.7-.4.5-.5.9-252.4.4-260.7-.1-1.3-15.1-1.5-128.9-1.5-70.8 0-129.7.1-130.9.3zM44.2 394.4c-1.1 1.8-.6 260.7.5 261.4 1.4.9 260.1.7 260.9-.1.9-.8.9-260.5.1-261.3-1-1-260.8-1-261.5 0zM396.3 393.8c-1.3.2-2.3.9-2.4 1.5-.4 7.3 0 259.9.4 260.4.9.8 258.3 1 260.5.2 1.6-.6 1.7-9.5 1.6-130.8 0-71.5-.4-130.4-.7-130.7-.6-.7-255.1-1.2-259.4-.6z"/></svg>